<svg width="32" height="32" viewBox="0 0 32 32" fill="none" xmlns="http://www.w3.org/2000/svg">
<g clip-path="url(#clip0_18_726)">
<path d="M13.6349 4.08401L11.7569 4.94118C11.6479 4.99114 11.5406 5.04461 11.4351 5.1015V3.60858C11.4351 2.79889 11.6893 2.00963 12.1619 1.35211L12.608 0.731239C12.8519 0.391989 12.488 -0.0507283 12.108 0.122727L10.7917 0.723448C10.1173 1.03129 9.54551 1.52655 9.14461 2.15021C8.74371 2.77387 8.53055 3.49964 8.53055 4.24104C8.53054 3.49965 8.31739 2.77388 7.91649 2.15022C7.51559 1.52656 6.94385 1.0313 6.26938 0.723448L4.9532 0.122727C4.57313 -0.0507283 4.20929 0.391989 4.45312 0.731239L4.89931 1.35211C5.37183 2.00963 5.626 2.79889 5.62597 3.60858V5.1015C5.5205 5.04458 5.41319 4.99111 5.30424 4.94118L3.42623 4.08401C2.88391 3.83651 2.36483 4.46813 2.71264 4.95225L3.34929 5.83814C4.02348 6.77632 4.38615 7.90246 4.38616 9.05776V9.96019H12.6749V9.05776C12.6749 7.90246 13.0376 6.77632 13.7118 5.83814L14.3484 4.95225C14.6963 4.46813 14.1772 3.83644 13.6349 4.08401Z" fill="#97DA7B"/>
<path d="M5.30411 4.94105L3.42597 4.08407C3.12915 3.94821 2.84006 4.07634 2.69583 4.29912L4.10266 4.94105C4.96865 5.29066 5.52109 5.13485 5.62603 5.10137C5.52109 5.04471 5.41356 4.99127 5.30411 4.94105ZM6.26925 0.723768L4.9532 0.123047C4.68922 0.00264511 4.43361 0.179063 4.38339 0.411496L5.06781 0.723768C6.44502 1.35217 8.53048 3.20327 8.53048 4.24117C8.53048 2.72681 7.64711 1.35217 6.26925 0.723768ZM12.1078 0.123047L11.4761 0.411496C11.4987 0.513869 11.4806 0.627832 11.406 0.731494L10.9598 1.35217C10.9553 1.35861 10.9508 1.36505 10.9456 1.37213C10.2457 2.35917 10.305 3.69775 11.0641 4.64036L11.4349 5.10137V3.6089C11.4349 2.79893 11.6893 2.00955 12.1619 1.35217L12.608 0.731494C12.8521 0.39218 12.4883 -0.0507952 12.1078 0.123047ZM13.635 4.08407L13.1637 4.29912C13.2841 4.48326 13.3041 4.73308 13.1463 4.95199L12.5102 5.83794C11.8358 6.77618 11.473 7.90244 11.4729 9.05788V9.95993H12.675V9.05788C12.6749 7.9025 13.0375 6.77624 13.7116 5.83794L14.3484 4.95199C14.6961 4.46845 14.1771 3.83618 13.635 4.08407Z" fill="#80D261"/>
<path d="M8.51226 28.2106C5.20083 28.2106 2.24358 26.1378 1.11393 23.025L1.0592 22.8741C-0.155761 19.5263 -0.155761 15.858 1.0592 12.5102L1.11393 12.3593C2.24358 9.24654 5.20083 7.17377 8.51226 7.17377H8.5872C11.8799 7.17377 14.8246 9.22349 15.968 12.3113C17.2051 15.6523 17.2285 19.3218 16.0341 22.6783L15.9273 22.9786C14.8111 26.1155 11.8418 28.2106 8.51226 28.2106Z" fill="#FFD15B"/>
<path d="M16.9129 17.5858C16.9129 19.3081 16.62 21.0304 16.034 22.6781L15.9272 22.9788C14.8114 26.1156 11.8419 28.2108 8.51248 28.2108C8.18926 28.2108 7.86926 28.1908 7.55441 28.1522C10.484 27.7929 13.0015 25.8105 14.0085 22.9788L14.1153 22.6781C14.6972 21.0431 14.9945 19.3205 14.9942 17.5852C14.9942 15.7984 14.6794 14.0124 14.0497 12.3113C13.0143 9.51502 10.502 7.57057 7.59176 7.22803C7.89501 7.19198 8.20214 7.17395 8.51248 7.17395H8.58716C11.8799 7.17395 14.8249 9.22335 15.9677 12.3113C16.5931 13.9995 16.9131 15.7855 16.9129 17.5858Z" fill="#FFC344"/>
<path d="M26.9757 4.64374C27.2458 4.37364 27.6876 4.38208 27.9455 4.66396C33.5081 10.7442 33.3468 20.1866 27.4615 26.0719C21.4103 32.1231 11.5987 32.123 5.54761 26.0719L7.32878 24.2907L17.6095 15.5381L25.6795 5.93983L26.9757 4.64374Z" fill="#97DA7B"/>
<path d="M27.4612 26.0719C24.1994 29.3337 19.8444 30.8371 15.5756 30.5828C19.2256 30.3645 22.8132 28.8604 25.6018 26.0719C31.207 20.4667 31.62 11.6347 26.8414 5.55416C26.771 5.4649 26.6738 5.40054 26.5642 5.37051C26.4546 5.34047 26.3382 5.34635 26.2321 5.38727L26.9755 4.64387C27.2456 4.37377 27.6874 4.38221 27.9452 4.66402C33.5083 10.7442 33.347 20.1868 27.4612 26.0719Z" fill="#80D261"/>
<path d="M25.6803 5.93909C30.748 11.0068 30.748 19.2229 25.6803 24.2906C20.6125 29.3583 12.3965 29.3584 7.32874 24.2906L16.5045 15.1149L25.6803 5.93909Z" fill="#EE6161"/>
<path d="M25.6803 24.2909C22.9201 27.0512 19.225 28.308 15.6142 28.0607C18.6326 27.8547 21.5925 26.5979 23.9001 24.2909C28.6672 19.5232 28.9492 11.9694 24.7474 6.87198L25.6803 5.93903C30.7481 11.0068 30.7481 19.2231 25.6803 24.2909Z" fill="#E94444"/>
<path d="M15.3507 31.9161C18.6229 31.9161 21.2756 29.2635 21.2756 25.9913C21.2756 22.7191 18.6229 20.0664 15.3507 20.0664C12.0785 20.0664 9.42584 22.7191 9.42584 25.9913C9.42584 29.2635 12.0785 31.9161 15.3507 31.9161Z" fill="#FFD15B"/>
<path d="M21.2757 25.9914C21.2757 29.2635 18.623 31.9162 15.3509 31.9162C15.067 31.9162 14.7869 31.8962 14.5139 31.8569C17.39 31.4507 19.6017 28.9795 19.6017 25.9914C19.6017 23.0032 17.39 20.5321 14.5139 20.1258C14.7869 20.0865 15.067 20.0666 15.3509 20.0666C18.623 20.0666 21.2757 22.7193 21.2757 25.9914Z" fill="#FFC344"/>
<path d="M6.99869 31.7251L6.92181 31.7004C6.49928 31.564 6.04452 31.564 5.62199 31.7004C3.27338 32.4551 0.827619 30.9041 0.224902 28.2776L0.218335 28.2491C-0.0728189 26.9768 -0.0728189 25.6551 0.218335 24.3828L0.244862 24.2672C0.839981 21.6741 3.23507 20.1228 5.56565 20.8208L5.66403 20.8503C6.06044 20.9695 6.48317 20.9695 6.87957 20.8503L7.0538 20.7981C9.35496 20.1089 11.7255 21.6127 12.3547 24.1607L12.3757 24.2459C12.7103 25.6056 12.7103 27.0263 12.3757 28.3861C11.7384 30.9672 9.31774 32.4704 6.99869 31.7251Z" fill="#F79595"/>
<path d="M12.3756 28.3859C11.9043 30.2937 10.4595 31.6129 8.80092 31.8698C9.76413 31.0863 10.493 29.7831 10.8381 28.3859C11.1729 27.0312 11.1729 25.6012 10.8381 24.2459L10.8175 24.1609C10.4157 22.5332 9.52719 21.203 8.33798 20.6339C10.1794 20.7066 11.8432 22.0883 12.355 24.1609L12.3756 24.2459C12.7104 25.6012 12.7104 27.0312 12.3756 28.3859Z" fill="#F47C7C"/>
<path d="M6.31335 22.7865C6.24994 22.7865 6.18714 22.7741 6.12855 22.7498C6.06995 22.7255 6.01672 22.69 5.97187 22.6451C5.92703 22.6003 5.89146 22.547 5.8672 22.4884C5.84293 22.4299 5.83045 22.3671 5.83046 22.3036C5.83046 19.3151 3.94395 18.2647 3.92489 18.2544C3.81297 18.1932 3.72979 18.0903 3.69352 17.968C3.65725 17.8457 3.67083 17.714 3.7313 17.6017C3.79177 17.4894 3.89421 17.4056 4.01626 17.3686C4.13831 17.3315 4.27006 17.3443 4.38274 17.4041C4.48125 17.4571 6.79618 18.7446 6.79618 22.3036C6.7962 22.3671 6.78372 22.4299 6.75946 22.4884C6.73521 22.547 6.69964 22.6003 6.65481 22.6451C6.60997 22.69 6.55674 22.7255 6.49815 22.7498C6.43956 22.7741 6.37677 22.7865 6.31335 22.7865Z" fill="#97DA7B"/>
<path d="M22.9725 22.0658C22.909 22.0658 22.8462 22.0534 22.7876 22.0291C22.729 22.0049 22.6758 21.9693 22.631 21.9244L21.9017 21.1951C21.8112 21.1046 21.7603 20.9817 21.7603 20.8537C21.7603 20.7256 21.8112 20.6028 21.9017 20.5122C21.9923 20.4216 22.1151 20.3708 22.2432 20.3708C22.3713 20.3708 22.4941 20.4216 22.5847 20.5122L23.3139 21.2414C23.3814 21.309 23.4274 21.395 23.446 21.4887C23.4647 21.5823 23.4551 21.6794 23.4186 21.7677C23.382 21.8559 23.3201 21.9313 23.2407 21.9844C23.1613 22.0374 23.068 22.0658 22.9725 22.0658ZM24.997 19.0832C24.9294 19.0831 24.8625 19.0689 24.8007 19.0412L23.8607 18.6224C23.7447 18.5697 23.6542 18.4732 23.6089 18.354C23.5637 18.2349 23.5675 18.1026 23.6193 17.9862C23.6712 17.8698 23.767 17.7786 23.8859 17.7325C24.0048 17.6864 24.137 17.6892 24.2538 17.7403L25.1938 18.1591C25.2949 18.2041 25.3775 18.2825 25.4277 18.3811C25.4779 18.4797 25.4928 18.5926 25.4697 18.7008C25.4467 18.8091 25.3871 18.9061 25.3011 18.9757C25.215 19.0453 25.1077 19.0833 24.997 19.0832ZM25.7879 15.5501C25.7798 15.5501 25.7716 15.5499 25.7633 15.5495L24.7411 15.4982C24.6777 15.495 24.6157 15.4794 24.5584 15.4523C24.5011 15.4251 24.4497 15.3869 24.4071 15.3399C24.3646 15.2928 24.3318 15.2379 24.3105 15.1782C24.2892 15.1184 24.2798 15.0551 24.283 14.9918C24.2895 14.8639 24.3464 14.7437 24.4414 14.6579C24.5364 14.572 24.6616 14.5273 24.7895 14.5337L25.8117 14.585C25.875 14.5881 25.9371 14.6037 25.9944 14.6309C26.0517 14.6581 26.1031 14.6963 26.1456 14.7433C26.1882 14.7903 26.221 14.8453 26.2423 14.905C26.2636 14.9647 26.2729 15.0281 26.2697 15.0914C26.2635 15.2151 26.2101 15.3316 26.1204 15.417C26.0307 15.5023 25.9117 15.55 25.7879 15.5501ZM24.2702 12.2735C24.1556 12.2735 24.0448 12.2327 23.9575 12.1585C23.8702 12.0842 23.8121 11.9814 23.7937 11.8682C23.7753 11.7551 23.7976 11.6392 23.8568 11.5411C23.916 11.4429 24.0082 11.3691 24.1169 11.3326L25.0816 11.0092C25.1417 10.9891 25.2052 10.981 25.2685 10.9854C25.3317 10.9897 25.3935 11.0066 25.4503 11.0348C25.507 11.0631 25.5577 11.1023 25.5993 11.1501C25.6409 11.1979 25.6727 11.2535 25.6929 11.3136C25.7131 11.3738 25.7212 11.4373 25.7168 11.5005C25.7124 11.5638 25.6956 11.6256 25.6673 11.6824C25.639 11.7391 25.5999 11.7898 25.552 11.8314C25.5042 11.873 25.4486 11.9048 25.3885 11.925L24.4238 12.2484C24.3743 12.265 24.3224 12.2735 24.2702 12.2735Z" fill="#935B50"/>
<path d="M8.53057 13.5557C8.46715 13.5558 8.40434 13.5434 8.34575 13.5191C8.28715 13.4948 8.23393 13.4592 8.18913 13.4143L7.12516 12.3504C7.0803 12.3056 7.04472 12.2524 7.02044 12.1938C6.99616 12.1352 6.98366 12.0724 6.98365 12.009C6.98365 11.9456 6.99614 11.8828 7.0204 11.8242C7.04467 11.7656 7.08025 11.7124 7.12509 11.6675C7.21564 11.577 7.33846 11.5261 7.46652 11.5261C7.59458 11.5261 7.7174 11.5769 7.80797 11.6675L8.53057 12.39L9.25318 11.6675C9.44176 11.4789 9.74753 11.4789 9.93605 11.6675C10.1246 11.8561 10.1246 12.1619 9.93599 12.3504L8.87201 13.4143C8.82721 13.4592 8.77398 13.4948 8.71539 13.5191C8.6568 13.5433 8.59399 13.5558 8.53057 13.5557ZM12.8858 13.5557C12.8224 13.5558 12.7596 13.5434 12.701 13.5191C12.6424 13.4948 12.5892 13.4592 12.5444 13.4143L11.4804 12.3504C11.4356 12.3056 11.4 12.2524 11.3757 12.1938C11.3514 12.1352 11.3389 12.0724 11.3389 12.009C11.3389 11.9456 11.3514 11.8828 11.3757 11.8242C11.3999 11.7656 11.4355 11.7124 11.4803 11.6675C11.5709 11.577 11.6937 11.5261 11.8218 11.5261C11.9498 11.5261 12.0727 11.5769 12.1632 11.6675L12.8858 12.39L13.6084 11.6675C13.797 11.4789 14.1027 11.4789 14.2913 11.6675C14.4799 11.8561 14.4799 12.1619 14.2912 12.3504L13.2273 13.4143C13.1825 13.4592 13.1292 13.4948 13.0706 13.5191C13.0121 13.5433 12.9492 13.5558 12.8858 13.5557ZM6.33186 16.6053C6.20377 16.6053 6.08094 16.5544 5.99036 16.4638L4.92644 15.3999C4.8816 15.355 4.84602 15.3018 4.82175 15.2432C4.79749 15.1846 4.785 15.1218 4.785 15.0584C4.78501 14.995 4.79751 14.9322 4.82179 14.8736C4.84607 14.815 4.88165 14.7618 4.92651 14.717C5.01707 14.6264 5.1399 14.5756 5.26796 14.5756C5.39602 14.5756 5.51883 14.6265 5.60938 14.717L6.33186 15.4396L7.0544 14.717C7.14496 14.6264 7.26779 14.5755 7.39587 14.5755C7.52394 14.5755 7.64677 14.6264 7.73734 14.717C7.8279 14.8075 7.87878 14.9304 7.87878 15.0585C7.87878 15.1865 7.8279 15.3094 7.73734 15.3999L6.67336 16.4639C6.58276 16.5544 6.45993 16.6053 6.33186 16.6053ZM10.6871 16.6053C10.559 16.6053 10.4361 16.5544 10.3455 16.4638L9.28164 15.3999C9.23679 15.355 9.20122 15.3018 9.17695 15.2432C9.15268 15.1846 9.14019 15.1218 9.1402 15.0584C9.1402 14.995 9.1527 14.9322 9.17698 14.8736C9.20126 14.815 9.23684 14.7618 9.2817 14.717C9.37227 14.6264 9.49509 14.5756 9.62315 14.5756C9.75121 14.5756 9.87403 14.6265 9.96458 14.717L10.6871 15.4396L11.4096 14.717C11.5002 14.6264 11.623 14.5755 11.7511 14.5755C11.8791 14.5755 12.002 14.6264 12.0925 14.717C12.1831 14.8075 12.234 14.9304 12.234 15.0585C12.234 15.1865 12.1831 15.3094 12.0925 15.3999L11.0286 16.4639C10.938 16.5544 10.8151 16.6053 10.6871 16.6053Z" fill="#FFEFD2"/>
<path d="M16.4312 23.0771C16.6979 23.0771 16.9141 22.8609 16.9141 22.5942C16.9141 22.3275 16.6979 22.1113 16.4312 22.1113C16.1645 22.1113 15.9483 22.3275 15.9483 22.5942C15.9483 22.8609 16.1645 23.0771 16.4312 23.0771Z" fill="#FFEFD2"/>
</g>
<defs>
<clipPath id="clip0_18_726">
<rect width="32" height="32" fill="white"/>
</clipPath>
</defs>
</svg>
