<svg width="24" height="24" viewBox="0 0 24 24" fill="none" xmlns="http://www.w3.org/2000/svg">
<path d="M2 21V9L10 3L15.375 7.05C14.9583 7.1 14.5667 7.196 14.2 7.338C13.8333 7.48 13.4833 7.66733 13.15 7.9L10 5.5L4 10V19H8V21H2ZM10 21V19.1C10 18.75 10.0877 18.4207 10.263 18.112C10.4383 17.8033 10.6757 17.5577 10.975 17.375C11.7417 16.925 12.546 16.5833 13.388 16.35C14.23 16.1167 15.1007 16 16 16C16.9 16 17.771 16.1167 18.613 16.35C19.455 16.5833 20.259 16.925 21.025 17.375C21.325 17.5583 21.5627 17.8043 21.738 18.113C21.9133 18.4217 22.0007 18.7507 22 19.1V21H10ZM12.15 19H19.85C19.2667 18.6667 18.65 18.4167 18 18.25C17.35 18.0833 16.6833 18 16 18C15.3167 18 14.65 18.0833 14 18.25C13.35 18.4167 12.7333 18.6667 12.15 19ZM16 15C15.1667 15 14.4583 14.7083 13.875 14.125C13.2917 13.5417 13 12.8333 13 12C13 11.1667 13.2917 10.4583 13.875 9.875C14.4583 9.29167 15.1667 9 16 9C16.8333 9 17.5417 9.29167 18.125 9.875C18.7083 10.4583 19 11.1667 19 12C19 12.8333 18.7083 13.5417 18.125 14.125C17.5417 14.7083 16.8333 15 16 15ZM16 13C16.2833 13 16.521 12.904 16.713 12.712C16.905 12.52 17.0007 12.2827 17 12C17 11.7167 16.904 11.479 16.712 11.287C16.52 11.095 16.2827 10.9993 16 11C15.7167 11 15.479 11.096 15.287 11.288C15.095 11.48 14.9993 11.7173 15 12C15 12.2833 15.096 12.521 15.288 12.713C15.48 12.905 15.7173 13.0007 16 13Z" fill="#3BC462"/>
</svg>
