<svg width="32" height="32" viewBox="0 0 32 32" fill="none" xmlns="http://www.w3.org/2000/svg">
<path d="M8.58 22.09C5.89 22.59 4.25 23.59 4.25 24.5C4.25 25.41 5.89 26.415 8.58 26.915C9.0182 26.1866 9.24973 25.3526 9.24973 24.5025C9.24973 23.6525 9.0182 22.8184 8.58 22.09Z" fill="#E0ECB7"/>
<path d="M13.255 27.74C13.8123 28.4053 14.5608 28.883 15.3989 29.1084C16.237 29.3338 17.1242 29.296 17.94 29C17.324 28.5971 16.8104 28.0561 16.44 27.42C15.3876 27.6048 14.3231 27.7117 13.255 27.74ZM12.82 21.255C12.9194 20.5929 13.1597 19.9597 13.5245 19.3982C13.8894 18.8367 14.3703 18.3599 14.935 18C14.4752 17.8326 13.9894 17.7479 13.5 17.75C12.4604 17.7514 11.4573 18.1338 10.6805 18.8248C9.90381 19.5158 9.40731 20.4676 9.285 21.5C10.3492 21.3391 11.4237 21.2556 12.5 21.25L12.82 21.255Z" fill="#E3AB4A"/>
<path d="M24.5 20.75C23.652 20.7472 22.8284 21.0334 22.1648 21.5615C21.5013 22.0896 21.0376 22.828 20.85 23.655C20.8404 23.7005 20.8178 23.7421 20.7849 23.7749C20.7521 23.8078 20.7104 23.8304 20.665 23.84C20.6213 23.8519 20.575 23.8512 20.5317 23.838C20.4883 23.8247 20.4496 23.7994 20.42 23.765C19.36 22.58 16.105 21.765 12.5 21.765C11.362 21.7623 10.2254 21.8459 9.10001 22.015C9.52558 22.7795 9.74895 23.64 9.74895 24.515C9.74895 25.39 9.52558 26.2505 9.10001 27.015C10.2255 27.1823 11.3621 27.2642 12.5 27.26C16.105 27.26 19.36 26.435 20.42 25.26C20.4427 25.2332 20.4711 25.2116 20.503 25.1969C20.535 25.1822 20.5698 25.1748 20.605 25.175H20.665C20.7104 25.1847 20.7521 25.2073 20.7849 25.2401C20.8178 25.2729 20.8404 25.3146 20.85 25.36C21.0397 26.1847 21.5045 26.9202 22.1679 27.4455C22.8313 27.9708 23.6538 28.2545 24.5 28.25C24.7808 28.25 25.0607 28.2199 25.335 28.16C24.6997 27.784 24.1732 27.249 23.8075 26.6077C23.4419 25.9663 23.2495 25.2408 23.2495 24.5025C23.2495 23.7643 23.4419 23.0387 23.8075 22.3974C24.1732 21.756 24.6997 21.221 25.335 20.845C25.0609 20.7836 24.7809 20.7517 24.5 20.75Z" fill="#5B7FAD"/>
<path d="M30.7 9.44001C30.3382 7.75068 29.4282 6.2283 28.1116 5.10971C26.795 3.99113 25.1456 3.33908 23.42 3.25501C21.3947 3.17074 19.4181 3.88952 17.92 5.25501C18.2573 5.81425 18.5037 6.4235 18.65 7.06001C19.2946 6.31738 20.1351 5.77095 21.0754 5.48305C22.0157 5.19516 23.018 5.17741 23.9679 5.43183C24.9178 5.68625 25.777 6.20259 26.4475 6.92192C27.118 7.64125 27.5728 8.5346 27.76 9.50001C27.7666 9.53805 27.7646 9.57708 27.7542 9.61427C27.7439 9.65146 27.7253 9.68587 27.7 9.71501C27.6747 9.74372 27.6429 9.76597 27.6072 9.77989C27.5716 9.7938 27.5331 9.79899 27.495 9.79501H27.11C25.851 9.79765 24.6444 10.2989 23.7542 11.1892C22.8639 12.0794 22.3626 13.286 22.36 14.545C22.3614 14.713 22.3237 14.8791 22.2499 15.03C22.1762 15.181 22.0684 15.3128 21.935 15.415C21.7662 15.5372 21.5634 15.6037 21.355 15.605C21.2585 15.6065 21.1624 15.593 21.07 15.565C20.2651 15.3167 19.5317 14.8787 18.9313 14.2879C18.3309 13.6971 17.8812 12.9708 17.62 12.17C17.4243 12.4468 17.207 12.7076 16.97 12.95C16.639 13.2754 16.2735 13.5637 15.88 13.81C16.3488 15.0218 17.1122 16.0976 18.1014 16.94C19.0905 17.7825 20.2741 18.3651 21.545 18.635H21.615C21.8825 18.6906 22.1591 18.6839 22.4236 18.6154C22.688 18.5469 22.9332 18.4185 23.14 18.24C23.3737 18.0433 23.5598 17.7963 23.6845 17.5175C23.8092 17.2387 23.8692 16.9353 23.86 16.63C23.859 16.2242 23.906 15.8198 24 15.425C24.196 14.5576 24.6341 13.7635 25.2634 13.1351C25.8926 12.5068 26.6873 12.0698 27.555 11.875C27.9376 11.7912 28.3283 11.7493 28.72 11.75C29.026 11.7624 29.3307 11.7044 29.6107 11.5804C29.8907 11.4565 30.1385 11.2699 30.335 11.035C30.5127 10.8276 30.641 10.5826 30.7103 10.3185C30.7796 10.0543 30.788 9.7779 30.735 9.51001L30.7 9.44001Z" fill="#E3AB4A"/>
<path d="M21.215 15.04C21.2858 15.0628 21.3611 15.0679 21.4343 15.0548C21.5076 15.0417 21.5765 15.0109 21.635 14.965C21.705 14.9128 21.7618 14.8449 21.8009 14.7667C21.8399 14.6886 21.8602 14.6024 21.86 14.515C21.8587 13.1209 22.4109 11.7832 23.3953 10.796C24.3797 9.80872 25.7158 9.25269 27.11 9.25004H27.195C26.9577 8.38444 26.4799 7.60388 25.8168 6.99897C25.1538 6.39406 24.3328 5.9896 23.4491 5.83255C22.5654 5.6755 21.6553 5.77229 20.8244 6.1117C19.9936 6.4511 19.276 7.0192 18.755 7.75004C18.78 7.95504 18.795 8.16504 18.8 8.37504C18.826 9.49266 18.5496 10.5965 18 11.57C18.187 12.3785 18.582 13.124 19.1459 13.7327C19.7099 14.3414 20.4232 14.792 21.215 15.04Z" fill="#F5846F"/>
<path d="M18.3 8.37003C18.2861 7.59417 18.1145 6.82925 17.7956 6.12181C17.4767 5.41438 17.0172 4.77924 16.445 4.25503C15.39 3.29691 14.019 2.76112 12.594 2.75005C11.1689 2.73898 9.78972 3.25341 8.72001 4.19503C8.13051 4.71833 7.65596 5.35822 7.32635 6.07425C6.99673 6.79028 6.81921 7.5669 6.80501 8.35503C6.79763 10.4992 5.95879 12.5568 4.46501 14.095L4.19001 14.37C4.1503 14.4089 4.09875 14.4335 4.04351 14.4399C3.98827 14.4462 3.9325 14.4339 3.88501 14.405C3.55129 14.2088 3.16179 14.1291 2.77782 14.1785C2.39385 14.2279 2.03722 14.4036 1.76405 14.6779C1.49087 14.9523 1.31668 15.3096 1.26888 15.6938C1.22108 16.078 1.30239 16.4671 1.50001 16.8C1.66552 17.078 1.90527 17.3044 2.19233 17.4536C2.47938 17.6029 2.80237 17.6692 3.12501 17.645C3.19062 17.6475 3.25298 17.6742 3.30001 17.72C3.32493 17.7456 3.34408 17.7763 3.35616 17.8099C3.36823 17.8436 3.37295 17.8794 3.37001 17.915C3.34689 18.2348 3.41235 18.5548 3.55918 18.8399C3.70601 19.1249 3.92855 19.364 4.20236 19.5309C4.47616 19.6978 4.79066 19.786 5.1113 19.7858C5.43195 19.7857 5.74636 19.6972 6.02001 19.53C6.41091 19.2888 6.69165 18.9039 6.80195 18.458C6.91226 18.0121 6.84335 17.5407 6.61001 17.145C6.58296 17.0975 6.57223 17.0425 6.57945 16.9883C6.58667 16.9341 6.61146 16.8838 6.65001 16.845L6.92501 16.57C8.44712 15.0734 10.4954 14.2333 12.63 14.23C13.3877 14.2196 14.1359 14.0596 14.8315 13.759C15.5271 13.4585 16.1565 13.0235 16.6834 12.4789C17.2103 11.9343 17.6244 11.291 17.9018 10.5858C18.1792 9.88068 18.3146 9.12765 18.3 8.37003Z" fill="#EF7C32"/>
<path d="M15.025 6.00004C14.7 5.675 14.3141 5.41716 13.8895 5.24124C13.4648 5.06533 13.0096 4.97479 12.55 4.97479C12.0903 4.97479 11.6352 5.06533 11.2105 5.24124C10.7859 5.41716 10.4 5.675 10.075 6.00004L9.36499 5.29504C9.78287 4.87702 10.279 4.54542 10.8251 4.31918C11.3711 4.09295 11.9564 3.9765 12.5475 3.9765C13.1386 3.9765 13.7238 4.09295 14.2699 4.31918C14.816 4.54542 15.3121 4.87702 15.73 5.29504L15.025 6.00004Z" fill="#E3AB4A"/>
<path d="M7.5 24.5C7.77614 24.5 8 24.2761 8 24C8 23.7239 7.77614 23.5 7.5 23.5C7.22386 23.5 7 23.7239 7 24C7 24.2761 7.22386 24.5 7.5 24.5Z" fill="#686E2B"/>
</svg>
