<svg width="32" height="32" viewBox="0 0 32 32" fill="none" xmlns="http://www.w3.org/2000/svg">
<path d="M28.5 9C28.5 8.20875 28.0405 7.52488 27.3738 7.2005C27.4575 6.97645 27.5003 6.73918 27.5 6.5C27.5 5.39544 26.6046 4.5 25.5 4.5C25.311 4.5 25.1281 4.52625 24.9548 4.57525C24.76 3.67469 23.9588 3 23 3C22.6562 2.99949 22.3181 3.08799 22.0187 3.25688L21.9847 3.24813C21.9948 3.16681 22 3.08406 22 3C22 1.89544 21.1046 1 20 1C18.8954 1 18 1.89544 18 3C18 3.08406 18.0052 3.16681 18.0153 3.24819L17.9813 3.25694C17.6818 3.08799 17.3438 2.99947 17 3C16.0412 3 15.24 3.67469 15.0452 4.57525C14.8678 4.52518 14.6843 4.49986 14.5 4.5C13.3954 4.5 12.5 5.39544 12.5 6.5C12.5 6.74644 12.5446 6.9825 12.6262 7.2005C11.9595 7.52488 11.5 8.20875 11.5 9C11.4993 9.50064 11.687 9.9832 12.0259 10.3517C12.0086 10.5674 12 10.7836 12 11V21C12 25.4183 15.5818 29 20 29C24.4183 29 28 25.4183 28 21V11C28 10.7817 27.9913 10.5655 27.9741 10.3517C28.313 9.9832 28.5007 9.50064 28.5 9Z" fill="#69A041"/>
<path d="M18 3C18 3.08406 18.0052 3.16681 18.0153 3.24819L17.9813 3.25694C17.6818 3.08799 17.3438 2.99947 17 3C16.0412 3 15.24 3.67469 15.0452 4.57525C14.8678 4.52518 14.6843 4.49986 14.5 4.5C13.3954 4.5 12.5 5.39544 12.5 6.5C12.5 6.74644 12.5446 6.9825 12.6262 7.2005C11.9595 7.52488 11.5 8.20875 11.5 9C11.4993 9.50064 11.687 9.9832 12.0259 10.3517C12.0086 10.5674 12 10.7836 12 11V21C12 23.2091 13.7909 25 16 25C18.2091 25 20 23.2091 20 21V1C18.8954 1 18 1.89544 18 3Z" fill="#91B945"/>
<path d="M25.6464 16.6464L23.1819 19.1109C22.5354 19.7568 21.9614 20.4713 21.4701 21.2419C21.3616 20.5281 21.2622 19.8129 21.1718 19.0966C21.7403 17.5059 22.6592 16.0479 23.889 14.8181L26.3535 12.3536C26.4473 12.2598 26.5 12.1326 26.5 12C26.5 11.8674 26.4473 11.7402 26.3535 11.6464C26.2598 11.5527 26.1326 11.5 26 11.5C25.8674 11.5 25.7402 11.5527 25.6464 11.6464L23.1819 14.1109C22.2829 15.01 21.535 16.0262 20.9486 17.1416C20.8895 16.5663 20.8362 15.9904 20.7887 15.4139C21.2665 13.311 22.3267 11.3804 23.889 9.81806L24.3535 9.35356C24.4473 9.25979 24.5 9.13261 24.5 9C24.5 8.86739 24.4473 8.74021 24.3535 8.64644C24.2598 8.55267 24.1326 8.49999 24 8.49999C23.8674 8.49999 23.7402 8.55267 23.6464 8.64644L23.1819 9.11094C22.1025 10.1904 21.2408 11.4385 20.6153 12.825C20.5386 11.3487 20.5001 9.87071 20.5 8.39244V6.5C20.5 6.36739 20.4473 6.24021 20.3535 6.14645C20.2598 6.05268 20.1326 6 20 6C19.8674 6 19.7402 6.05268 19.6464 6.14645C19.5527 6.24021 19.5 6.36739 19.5 6.5V8.39237C19.4998 9.87064 19.4614 11.3487 19.3847 12.8249C18.7592 11.4384 17.8974 10.1903 16.818 9.11088L16.3535 8.64637C16.2598 8.55265 16.1326 8.5 16 8.5C15.8674 8.5 15.7402 8.55265 15.6464 8.64637C15.6 8.6928 15.5631 8.74792 15.538 8.80859C15.5129 8.86925 15.4999 8.93427 15.4999 8.99994C15.4999 9.0656 15.5129 9.13062 15.538 9.19129C15.5631 9.25196 15.6 9.30708 15.6464 9.3535L16.1109 9.818C17.6732 11.3804 18.7334 13.3109 19.2112 15.4139C19.1637 15.9903 19.1104 16.5662 19.0513 17.1416C18.4649 16.0261 17.717 15.0099 16.818 14.1109L14.3535 11.6464C14.2597 11.5526 14.1325 11.5 14 11.5C13.8674 11.5 13.7402 11.5526 13.6464 11.6464C13.6 11.6928 13.5631 11.7479 13.538 11.8086C13.5129 11.8693 13.4999 11.9343 13.4999 11.9999C13.4999 12.0656 13.5129 12.1306 13.538 12.1913C13.5631 12.252 13.6 12.3071 13.6464 12.3535L16.1109 14.818C17.3407 16.0479 18.2597 17.5059 18.8281 19.0966C18.7377 19.8129 18.6383 20.528 18.5298 21.2418C18.0385 20.4713 17.4645 19.7567 16.818 19.1109L14.3535 16.6464C14.2597 16.5526 14.1325 16.5 14 16.5C13.8674 16.5 13.7402 16.5526 13.6464 16.6464C13.6 16.6928 13.5631 16.7479 13.538 16.8086C13.5129 16.8692 13.4999 16.9343 13.4999 16.9999C13.4999 17.0656 13.5129 17.1306 13.538 17.1913C13.5631 17.252 13.6 17.3071 13.6464 17.3535L16.1109 19.818C17.0007 20.7079 17.7277 21.7172 18.277 22.8097C18.0162 24.3373 17.714 25.8575 17.3707 27.3686L17.1212 28.4663C18.0145 28.8111 18.9852 29 20 29C21.0148 29 21.9854 28.8111 22.8787 28.4664L22.6292 27.3687C22.2859 25.8575 21.9837 24.3374 21.7229 22.8098C22.2722 21.7172 22.9992 20.7079 23.889 19.8181L26.3535 17.3536C26.4473 17.2598 26.5 17.1326 26.5 17C26.5 16.8674 26.4473 16.7402 26.3535 16.6464C26.2598 16.5527 26.1326 16.5 26 16.5C25.8674 16.5 25.7402 16.5527 25.6464 16.6464Z" fill="#DCFFA0"/>
<path d="M25.6464 16.6464L23.1819 19.1109C22.5354 19.7568 21.9614 20.4713 21.4701 21.2419C21.3616 20.5281 21.2622 19.8129 21.1718 19.0966C21.7403 17.5059 22.6592 16.0479 23.889 14.8181L26.3535 12.3536C26.4473 12.2598 26.5 12.1326 26.5 12C26.5 11.8674 26.4473 11.7402 26.3535 11.6464C26.2598 11.5527 26.1326 11.5 26 11.5C25.8674 11.5 25.7402 11.5527 25.6464 11.6464L23.1819 14.1109C22.2829 15.01 21.535 16.0262 20.9486 17.1416C20.8895 16.5663 20.8362 15.9904 20.7887 15.4139C21.2665 13.311 22.3267 11.3804 23.889 9.81806L24.3535 9.35356C24.4473 9.25979 24.5 9.13261 24.5 9C24.5 8.86739 24.4473 8.74021 24.3535 8.64644C24.2598 8.55267 24.1326 8.49999 24 8.49999C23.8674 8.49999 23.7402 8.55267 23.6464 8.64644L23.1819 9.11094C22.1025 10.1904 21.2408 11.4385 20.6153 12.825C20.5386 11.3487 20.5001 9.87071 20.5 8.39244V6.5C20.5 6.36739 20.4473 6.24021 20.3535 6.14645C20.2598 6.05268 20.1326 6 20 6C19.8674 6 19.7402 6.05268 19.6464 6.14645C19.5526 6.24021 19.5 6.36739 19.5 6.5V8.39237C19.5 14.7774 18.7858 21.1424 17.3707 27.3687L17.1212 28.4664C18.0145 28.8111 18.9852 29 20 29C21.0148 29 21.9854 28.8111 22.8787 28.4664L22.6292 27.3687C22.2859 25.8575 21.9837 24.3374 21.7228 22.8098C22.2722 21.7172 22.9992 20.7079 23.889 19.8181L26.3535 17.3536C26.4473 17.2598 26.5 17.1326 26.5 17C26.5 16.8674 26.4473 16.7402 26.3535 16.6464C26.2598 16.5527 26.1326 16.5 26 16.5C25.8674 16.5 25.7402 16.5527 25.6464 16.6464Z" fill="#AFD763"/>
<path d="M20 24.0374V6C19.8674 6 19.7402 6.05268 19.6464 6.14645C19.5527 6.24021 19.5 6.36739 19.5 6.5V8.39237C19.5 13.5829 19.028 18.7603 18.0912 23.8606C17.9824 24.4531 18.4349 25 19.0374 25C19.569 25 20 24.569 20 24.0374Z" fill="#DCFFA0"/>
<path d="M10 12.5C9.86739 12.5 9.74021 12.4473 9.64645 12.3536C9.55268 12.2598 9.5 12.1326 9.5 12V11.5C9.5 10.1215 10.6215 9 12 9C12.1326 9 12.2598 9.05268 12.3536 9.14645C12.4473 9.24021 12.5 9.36739 12.5 9.5C12.5 9.63261 12.4473 9.75979 12.3536 9.85355C12.2598 9.94732 12.1326 10 12 10C11.1729 10 10.5 10.6729 10.5 11.5V12C10.5 12.1326 10.4473 12.2598 10.3536 12.3536C10.2598 12.4473 10.1326 12.5 10 12.5Z" fill="#4B8C41"/>
<path d="M10 24C13.3137 24 16 21.3137 16 18C16 14.6863 13.3137 12 10 12C6.68629 12 4 14.6863 4 18C4 21.3137 6.68629 24 10 24Z" fill="#E1322D"/>
<path d="M8 18H4C4 14.6863 6.68631 12 10 12V16C10 17.1046 9.10456 18 8 18Z" fill="#F04B37"/>
<path d="M7 16C7.55228 16 8 15.5523 8 15C8 14.4477 7.55228 14 7 14C6.44772 14 6 14.4477 6 15C6 15.5523 6.44772 16 7 16Z" fill="#F5826E"/>
<path d="M13.5 11.5H6.5C6.36739 11.5 6.24021 11.5527 6.14645 11.6464C6.05268 11.7402 6 11.8674 6 12C6 12.1326 6.05268 12.2598 6.14645 12.3536C6.24021 12.4473 6.36739 12.5 6.5 12.5H8.79288L8.14644 13.1464C8.1 13.1929 8.06316 13.248 8.03803 13.3086C8.01289 13.3693 7.99996 13.4343 7.99996 13.5C7.99996 13.5657 8.01289 13.6307 8.03803 13.6914C8.06316 13.752 8.1 13.8071 8.14644 13.8536C8.24021 13.9473 8.36738 14 8.49997 14C8.63256 14 8.75973 13.9473 8.8535 13.8536L10 12.7071L11.1464 13.8536C11.2441 13.9512 11.372 14 11.5 14C11.628 14 11.7559 13.9512 11.8536 13.8536C11.9 13.8071 11.9368 13.752 11.962 13.6914C11.9871 13.6307 12 13.5657 12 13.5C12 13.4343 11.9871 13.3693 11.962 13.3086C11.9368 13.248 11.9 13.1929 11.8536 13.1464L11.2071 12.5H13.5C13.6326 12.5 13.7598 12.4473 13.8536 12.3536C13.9473 12.2598 14 12.1326 14 12C14 11.8674 13.9473 11.7402 13.8536 11.6464C13.7598 11.5527 13.6326 11.5 13.5 11.5Z" fill="#69A041"/>
<path d="M5 31C4.44775 31 4 30.5523 4 30C4 29.0881 4.35513 28.2307 5 27.5858L5.58581 27C6.23056 26.3552 7.088 26 8 26C8.55225 26 9 26.4477 9 27C9 27.5523 8.55225 28 8 28C7.81421 27.9995 7.63017 28.0358 7.45852 28.1069C7.28687 28.178 7.13102 28.2825 7 28.4142L6.41419 29C6.28247 29.131 6.17804 29.2869 6.10694 29.4585C6.03585 29.6302 5.9995 29.8142 6 30C6 30.5523 5.55225 31 5 31Z" fill="#4B8C41"/>
<path d="M7.99998 24C7.08798 24 6.23055 23.6448 5.5858 23L4.99998 22.4142C4.35511 21.7693 3.99998 20.9119 3.99998 20C3.99998 19.4477 4.44773 19 4.99998 19C5.55223 19 5.99998 19.4477 5.99998 20C5.99948 20.1858 6.03583 20.3698 6.10693 20.5415C6.17802 20.7131 6.28245 20.869 6.41417 21L6.99998 21.5858C7.13101 21.7175 7.28685 21.822 7.4585 21.8931C7.63015 21.9642 7.8142 22.0005 7.99998 22C8.55223 22 8.99998 22.4477 8.99998 23C8.99998 23.5523 8.55223 24 7.99998 24ZM2.99998 28.5C2.86864 28.5002 2.73856 28.4744 2.61722 28.4241C2.49588 28.3738 2.38567 28.3001 2.29292 28.2071C1.90236 27.8166 1.90236 27.1834 2.29292 26.7929L3.1213 25.9644C4.06573 25.0201 5.32136 24.5 6.65686 24.5H7.99998C8.55223 24.5 8.99998 24.9477 8.99998 25.5C8.99998 26.0523 8.55223 26.5 7.99998 26.5H6.65686C5.85555 26.5 5.10217 26.8121 4.53555 27.3787L3.70711 28.2071C3.61435 28.3001 3.50412 28.3739 3.38277 28.4241C3.26142 28.4744 3.13133 28.5002 2.99998 28.5Z" fill="#69A041"/>
<path d="M7.99998 25.5H6.65686C5.32136 25.5 4.06573 24.9799 3.12136 24.0355L2.29292 23.2071C1.90236 22.8166 1.90236 22.1834 2.29292 21.7929C2.68342 21.4024 3.31661 21.4024 3.70711 21.7929L4.53555 22.6213C5.10217 23.1879 5.85555 23.5 6.65686 23.5H7.99998C8.55223 23.5 8.99998 23.9477 8.99998 24.5C8.99998 25.0523 8.55223 25.5 7.99998 25.5Z" fill="#91B945"/>
<path d="M10 20H22.3579C23.6711 20 24.9715 20.2587 26.1847 20.7612C27.398 21.2638 28.5004 22.0003 29.4289 22.9289L30.6464 24.1464C30.8728 24.3728 31 24.6799 31 25C31 25.3201 30.8728 25.6272 30.6464 25.8536L29.4289 27.0711C27.5536 28.9464 25.01 30 22.3579 30H10C8.89544 30 8 29.1046 8 28V22C8 20.8954 8.89544 20 10 20Z" fill="#FAA037"/>
<path d="M31 25H11C10.4477 25 10 25.4477 10 26V30H22.3579C23.6711 30 24.9715 29.7413 26.1847 29.2388C27.398 28.7362 28.5004 27.9997 29.4289 27.0711L30.6464 25.8536C30.8728 25.6272 31 25.3201 31 25ZM11 22.5V20H10V22.5C10 22.6326 10.0527 22.7598 10.1464 22.8536C10.2402 22.9473 10.3674 23 10.5 23C10.6326 23 10.7598 22.9473 10.8536 22.8536C10.9473 22.7598 11 22.6326 11 22.5ZM16.5 22.5V20H15.5V22.5C15.5 22.6326 15.5527 22.7598 15.6464 22.8536C15.7402 22.9473 15.8674 23 16 23C16.1326 23 16.2598 22.9473 16.3536 22.8536C16.4473 22.7598 16.5 22.6326 16.5 22.5ZM22 22.5V20H21V22.5C21 22.6326 21.0527 22.7598 21.1464 22.8536C21.2402 22.9473 21.3674 23 21.5 23C21.6326 23 21.7598 22.9473 21.8536 22.8536C21.9473 22.7598 22 22.6326 22 22.5Z" fill="#F57828"/>
<path d="M14 27.5V30H13V27.5C13 27.3674 13.0527 27.2402 13.1464 27.1464C13.2402 27.0527 13.3674 27 13.5 27C13.6326 27 13.7598 27.0527 13.8536 27.1464C13.9473 27.2402 14 27.3674 14 27.5ZM19 27.5V30H18V27.5C18 27.3674 18.0527 27.2402 18.1464 27.1464C18.2402 27.0527 18.3674 27 18.5 27C18.6326 27 18.7598 27.0527 18.8536 27.1464C18.9473 27.2402 19 27.3674 19 27.5Z" fill="#D65A0A"/>
</svg>
